<svg xmlns="http://www.w3.org/2000/svg" width="1200" height="360" viewBox="0 0 1200 360"><rect width="1200" height="360" fill="#07111f"/><g font-family="Arial" fill="#eaf1ff"><rect x="55" y="105" width="235" height="150" rx="22" fill="#101d31" stroke="#24344e"/><text x="172" y="155" text-anchor="middle" font-size="24" font-weight="700">Source</text><text x="172" y="190" text-anchor="middle" font-size="16" fill="#a7b5cc">SQL + notebooks</text><text x="172" y="215" text-anchor="middle" font-size="16" fill="#a7b5cc">report + slides</text><rect x="355" y="105" width="235" height="150" rx="22" fill="#101d31" stroke="#24344e"/><text x="472" y="155" text-anchor="middle" font-size="24" font-weight="700">Data</text><text x="472" y="190" text-anchor="middle" font-size="16" fill="#a7b5cc">3NF schema</text><text x="472" y="215" text-anchor="middle" font-size="16" fill="#a7b5cc">views + seed data</text><rect x="655" y="105" width="235" height="150" rx="22" fill="#101d31" stroke="#24344e"/><text x="772" y="155" text-anchor="middle" font-size="24" font-weight="700">Analytics</text><text x="772" y="190" text-anchor="middle" font-size="16" fill="#a7b5cc">pandas + Plotly</text><text x="772" y="215" text-anchor="middle" font-size="16" fill="#a7b5cc">query layer + KPIs</text><rect x="955" y="105" width="190" height="150" rx="22" fill="#101d31" stroke="#24344e"/><text x="1050" y="155" text-anchor="middle" font-size="24" font-weight="700">Delivery</text><text x="1050" y="190" text-anchor="middle" font-size="16" fill="#a7b5cc">Streamlit</text><text x="1050" y="215" text-anchor="middle" font-size="16" fill="#a7b5cc">GitHub + Pages</text><path d="M290 180h65M590 180h65M890 180h65" stroke="#72a7ff" stroke-width="5"/><path d="M345 169l14 11-14 11M645 169l14 11-14 11M945 169l14 11-14 11" fill="none" stroke="#72a7ff" stroke-width="5"/></g></svg>